<svg xmlns="http://www.w3.org/2000/svg" xmlns:xlink="http://www.w3.org/1999/xlink" width="1094" height="811.38" xmlns:v="https://vecta.io/nano"><style><![CDATA[.B{opacity:.1}.C{fill:#41923b}.D{fill:#192534}.E{fill:#fbbebe}.F{fill:#3f3d56}]]></style><g opacity=".3"><g fill="#f2f2f2"><rect x="631.64" y="450.62" width="130.73" height="39.52" rx="7.43"/><rect x="768.45" y="490.14" width="130.73" height="39.52" rx="7.43"/><rect x="905.27" y="529.67" width="130.73" height="39.52" rx="7.43"/><rect x="631.64" y="391.33" width="130.73" height="39.52" rx="7.43"/><rect x="768.45" y="430.86" width="130.73" height="39.52" rx="7.43"/><rect x="905.27" y="470.38" width="130.73" height="39.52" rx="7.43"/><rect x="631.64" y="312.29" width="130.73" height="39.52" rx="7.43"/><rect x="768.45" y="351.81" width="130.73" height="39.52" rx="7.43"/><rect x="905.27" y="391.33" width="130.73" height="39.52" rx="7.43"/><rect x="631.64" y="253" width="130.73" height="39.52" rx="7.43"/><rect x="768.45" y="292.52" width="130.73" height="39.52" rx="7.43"/><rect x="905.27" y="332.05" width="130.73" height="39.52" rx="7.43"/></g><g class="C"><rect x="631.64" y="450.62" width="130.73" height="39.52" rx="7.43" class="B"/><rect x="768.45" y="490.14" width="130.73" height="39.52" rx="7.43" class="B"/><rect x="905.27" y="529.67" width="130.73" height="39.52" rx="7.43" class="B"/><rect x="631.64" y="391.33" width="130.73" height="39.52" rx="7.43" class="B"/><rect x="768.45" y="430.86" width="130.73" height="39.52" rx="7.43" class="B"/><rect x="905.27" y="470.38" width="130.73" height="39.52" rx="7.43" class="B"/><rect x="631.64" y="312.29" width="130.73" height="39.52" rx="7.43" class="B"/><rect x="768.45" y="351.81" width="130.73" height="39.52" rx="7.43" class="B"/><rect x="905.27" y="391.33" width="130.73" height="39.52" rx="7.43" class="B"/><rect x="631.64" y="253" width="130.73" height="39.52" rx="7.43" class="B"/><rect x="768.45" y="292.52" width="130.73" height="39.52" rx="7.43" class="B"/><rect x="905.27" y="332.05" width="130.73" height="39.52" rx="7.43" class="B"/></g></g><g opacity=".3"><g fill="#f2f2f2"><rect x="119.64" y="197.62" width="130.73" height="39.52" rx="7.43"/><rect x="256.45" y="237.14" width="130.73" height="39.52" rx="7.43"/><rect x="393.27" y="276.67" width="130.73" height="39.52" rx="7.43"/><rect x="119.64" y="138.33" width="130.73" height="39.52" rx="7.43"/><rect x="256.45" y="177.86" width="130.73" height="39.52" rx="7.43"/><rect x="393.27" y="217.38" width="130.73" height="39.52" rx="7.43"/><rect x="119.64" y="59.29" width="130.73" height="39.52" rx="7.43"/><rect x="256.45" y="98.81" width="130.73" height="39.52" rx="7.43"/><rect x="393.27" y="138.33" width="130.73" height="39.52" rx="7.43"/><rect x="119.64" width="130.73" height="39.52" rx="7.43"/><rect x="256.45" y="39.52" width="130.73" height="39.52" rx="7.43"/><rect x="393.27" y="79.05" width="130.73" height="39.52" rx="7.43"/></g><g class="C"><rect x="119.64" y="197.62" width="130.73" height="39.52" rx="7.43" class="B"/><rect x="256.45" y="237.14" width="130.73" height="39.52" rx="7.43" class="B"/><rect x="393.27" y="276.67" width="130.73" height="39.52" rx="7.43" class="B"/><rect x="119.64" y="138.33" width="130.73" height="39.52" rx="7.43" class="B"/><rect x="256.45" y="177.86" width="130.73" height="39.52" rx="7.43" class="B"/><rect x="393.27" y="217.38" width="130.73" height="39.52" rx="7.43" class="B"/><rect x="119.64" y="59.29" width="130.73" height="39.52" rx="7.43" class="B"/><rect x="256.45" y="98.81" width="130.73" height="39.52" rx="7.43" class="B"/><rect x="393.27" y="138.33" width="130.73" height="39.52" rx="7.43" class="B"/><rect x="119.64" width="130.73" height="39.52" rx="7.43" class="B"/><rect x="256.45" y="39.52" width="130.73" height="39.52" rx="7.43" class="B"/><rect x="393.27" y="79.05" width="130.73" height="39.52" rx="7.43" class="B"/></g></g><g class="B"><path d="M295.6 552.2a80.56 80.56 0 0 1-1.74 16.87l-.7 3.07c-6.17 24.77-23.6 42.9-44.4 44-.7 0-1.4.06-2.1.06-22 0-40.58-19-46.7-45.08a52.43 52.43 0 0 1-.48-2.09 80.56 80.56 0 0 1-1.74-16.87c0-35.4 21.9-64 48.93-64s48.94 28.65 48.94 64.04z" class="F"/><path d="M295.6 552.2a80.56 80.56 0 0 1-1.74 16.87l-.7 3.07c-.74 0-1.46 0-2.2-.1a99.36 99.36 0 0 1-16-2.19 98.49 98.49 0 0 1-14.27 3.26 100.29 100.29 0 0 1-11.18 1l-3.78.07a102.12 102.12 0 0 1-13.4-.89 99 99 0 0 1-21-5.22 98.21 98.21 0 0 1-11.35 3 52.43 52.43 0 0 1-.48-2.09 80.56 80.56 0 0 1-1.74-16.87c0-35.4 21.9-64 48.93-64s48.9 28.7 48.9 64.08z" class="B"/><path d="M400 432.87a99.07 99.07 0 0 0-10.65-44.82l-57.55 17.9 50.5-29.7a99.37 99.37 0 0 0-74.72-42.59 99.69 99.69 0 0 0-7.75-10.27L217.1 349.1l67.8-39.86a99.47 99.47 0 0 0-156.52 53l70.8 81.5-76.92-55.52c-40.202 28.516-53.463 82.17-31.172 126.13s73.41 64.97 120.172 49.39a100 100 0 0 0 63.73 1.75 99.52 99.52 0 0 0 121-97.12 102.55 102.55 0 0 0-.22-6.58 99.47 99.47 0 0 0 4.22-28.94z" class="C"/><path d="M398.3 451.32a265 265 0 0 0-92.09-1.17c-34.55 5.72-69.87 18.3-103.67 9.1-19.83-5.4-37-17.88-56.35-24.8A106.81 106.81 0 0 0 88 430.94c-15.07 36.014-7.7 77.512 18.87 106.123s67.396 39.05 104.43 26.697a100 100 0 0 0 63.7 1.75 99.52 99.52 0 0 0 121-97.12 102.55 102.55 0 0 0-.22-6.58 98.49 98.49 0 0 0 2.51-10.49z" class="B"/><ellipse cx="547" cy="699.6" rx="547" ry="99.5" class="C"/></g><path d="M726.68 711.07a19 19 0 0 1 29.42-11l.78.57c16.73 12.54 6.8 35.54 0 36.06S737 737.78 737 737.78s-15.4-6.36-10.32-26.7z" class="D"/><path d="M877.62 695.44v4.18l-75.26 4.7h-13.6s-.2.2-.53.6l-2.56 3.12c-2.14 2.78-4.7 6.66-5.28 9.88-1 5.75-4.7 7.84-4.7 7.84l-13.6-3.65-13.1-15.68-1.9-1.84-5.44-5.2-4.65-4.45.23-2.5v-.38a141.85 141.85 0 0 1 4.26-15.88c0-.14.1-.3.14-.43 3.77-11.32 10.06-25.07 19.12-29.16.7-.3 1.4-.6 2.18-.88l.92-.32c17.38-5.82 50.22-3.5 50.22-3.5s25.08 7.32 27.18 10.46 25.87 29 25.87 29a39 39 0 0 1 5.74 5.31c2.23 2.47 4.3 5.58 4.76 8.8z" class="C"/><ellipse cx="734.93" cy="718.44" rx="7.32" ry="11.5" fill="#fff" class="B"/><path d="M765.25 650.5s-6 9.2-12.34 21a.41.41 0 0 0 0 .09c-1.7 3.14-3.4 6.45-5.05 9.84l-.07.16s-3.47-2.75-6.2-5.43c0-.14.1-.3.14-.43 3.77-11.32 10.06-25.07 19.12-29.16.7-.3 1.4-.6 2.18-.88z" class="B"/><path d="M747.48 681.33s37.1 11 44.42 6.27c0 0 2.62-33.45-14.63-35.54 0 0-9.93-2.62-12-1s-17.8 30.27-17.8 30.27zm48.08-24.57s7.32 27.7 12.55 28.23 58-.53 55.92-4.2-25.1-27.17-25.1-27.17z" class="B" fill="#fff"/><path d="M786.58 706.88s9.5-12.5 26.23.06 6.8 35.54 0 36.06-19.8 1.05-19.8 1.05-20.63-8.48-6.42-37.17zm98.67 3.18a15.14 15.14 0 0 0-20.47-8.78 29.27 29.27 0 0 0-5.28 3.21c-14.9 11.16-6 31.63 0 32.1l7.87.48a18.62 18.62 0 0 0 19.14-22.74 39.18 39.18 0 0 0-1.26-4.27z" class="D"/><g fill="#fff"><ellipse cx="790.86" cy="724.71" rx="7.32" ry="11.5" class="B"/><path d="M811.24 702.76s-1-15.16 15.16-8.9 5.75 13.07 5.75 13.07zm66.38-7.32v2.1l-2.6 1-5.33-1s-1.14-8.56 3.23-11c2.18 2.6 4.25 5.7 4.7 8.9z" class="B"/></g><path d="M877.62 695.54v4.08l-75.32 4.7c-3.76-2-7.52-2.9-10.68-1.56a11.69 11.69 0 0 0-2.69 1.56 13.34 13.34 0 0 0-.69.59 14.26 14.26 0 0 0-2.56 3.12c-4.68 7.57-3.68 19.3-3.68 19.3-13.6 4.18-27.7-6.8-27.7-6.8-2.56-7.68-4.95-12.7-7.14-16-2-3-3.82-4.47-5.44-5.2l-4.72-4.4.23-2.5 37.93 27.58s3.66-23.52 12-21.95 25.1 1.57 25.1 1.57z" class="B"/><path d="M734.93 692.3s-3.14 7.84 0 8.37 10.2-6 19.34 21.43c0 0 14.1 11 27.7 6.8 0 0-1.62-19.86 9.65-24.57s30.07 18.82 30.07 18.82v5.23l44.43-4.7S879.7 713.2 879.2 697l-66.9 4.18s-16.73 0-25.1-1.57-12 22-12 22z" class="C"/><rect x="518.81" y="549.35" width="55.93" height="55.93" rx="27.96" class="D"/><use xlink:href="#B" class="F"/><use xlink:href="#B" class="B"/><g class="F"><path d="M341.94 474.78c-1.7.26-3.5.4-4.9 1.38-2 1.4-2.5 4-3.46 6.26a15.33 15.33 0 0 1-6.05 7c-2.3 1.4-5.08 2.34-6.45 4.64a10.23 10.23 0 0 0-1.07 5 95.89 95.89 0 0 0 .69 15.34c.32 2.55.74 5.15.2 7.66-.6 2.93-2.45 5.42-4.2 7.85-4.2 5.8-8.3 12.2-8.65 19.35-.17 3.6.63 7.3-.28 10.78-1.6 6.2-8.17 10.23-9.45 16.5-.38 1.85-.28 3.8-1 5.54-1.26 3-4.73 4.64-5.62 7.73-.67 2.32.3 4.77.38 7.18.1 3.53-1.75 6.8-3.53 9.83l-10.4 17.7c-3.38 5.74-6.84 11.74-7.4 18.38-.5 5.9 1.32 11.72 3.33 17.28 4.47 12.35 11.1 25.43 23.36 30.18 7.2 2.8 15.24 2.2 22.95 1.56 10.56-.87 21.2-1.76 31.38-4.65 5.05-1.43 10-3.34 15.1-4.36 3.4-.67 6.9-1 10.17-2.1a21 21 0 0 0 13.64-16.5c4.36 1.72 8.4-4 7.78-8.64s-3.74-8.57-5-13.07c-1.8-6.2 0-12.95 3-18.67s7.14-10.78 10.4-16.35a62.29 62.29 0 0 0 7.48-20.16c1.75-9.6 1.22-19.44.68-29.17l-2.06-37.2c-.38-6.8-.8-13.84-3.8-20-3.3-6.7-9.3-11.63-15.28-16.1a254.86 254.86 0 0 0-27.75-18.38c-6.22-3.48-5.78-2.13-10.73 2a27.58 27.58 0 0 1-13.45 6.2z"/><path d="M426 578.25c-7.07 5.58-14.23 11.24-19.67 18.42a53.29 53.29 0 0 0-10.68 30.19 93.06 93.06 0 0 0 1.07 15.27c1.07 8.25 3 17.44 9.95 22 4.38 2.87 10.4 3.6 13.4 7.9.94 1.35 1.5 3 2.6 4.2 2 2.16 5.12 2.63 8 2.8a74.15 74.15 0 0 0 12.9-.4c4.9-.6 9.86-1.66 14.7-.74 9.42 1.77 16.45 10.66 26 11.85 7.93 1 15.36-3.6 22-8 6.85-4.53 14-9.38 17.7-16.7 3.6-7.12 3.4-15.5 3.13-23.5-.3-8.87-.63-17.85-3-26.4a46.42 46.42 0 0 1-1.69-6.86c-.7-6 2-11.9 4-17.64 3.1-8.73 4.47-19.5-1.7-26.4-2.6-2.92-6.24-4.72-9.92-6-16.25-5.84-34.2-3.62-50.86-1-15.9 2.4-25.43 11.2-37.9 21.04z"/></g><path d="M563.8 543.7c-6.44 9.67-12.9 19.4-17.55 30a193.17 193.17 0 0 0-8 23.6c-6.42 22.2-12.8 44.86-25.6 64.07-1.84 2.76-3.88 5.63-4.07 8.94-.18 3.1 1.3 6 2.73 8.76 3 5.84 6.14 11.74 10.42 16.76s9.4 8.82 14.56 12.7c10.7 8 22.6 16.48 36 15.88 2.77-.13 5.73-.77 7.58-2.84s2.1-4.93 1.78-7.6c-1-8.23-7.2-14.7-12.82-20.8s-11.27-13.23-10.82-21.55c.35-6.87 4.85-12.73 9.16-18.1 4.93-6.14 9.87-12.27 14.52-18.62 20.1-27.45 34.63-58.66 46.14-90.7 4.85-13.52 9.26-27.72 7.75-42-11-2.7-33-11.72-42.3-2.4-5.63 5.64-9.6 14-14 20.65z" class="E"/><path d="M656.68 449.8a171.6 171.6 0 0 0-16.24 38.6c-.93 3.26-1.76 6.7-1.05 10 .77 3.54 3.18 6.45 5 9.57s3.1 7.07 1.45 10.3c-7.8.6-15.53-1.52-23.07-3.63l-23.64-6.6a12.2 12.2 0 0 1-5.35-2.48c-2.74-2.6-2.53-6.94-2-10.66 4.63-30.46 19.5-58.54 25.07-88.83.8-4.37 1.66-9.2 5.14-12 10-7.9 32.64-1.2 37.82 10.23 5.8 12.7 3.42 34.1-3.13 45.5z" class="C"/><use xlink:href="#C" class="E"/><use xlink:href="#C" class="B"/><path d="M592 402.3c-4.57-5.16-10.74-8.57-16.15-12.85-7.78-6.16-13.93-14.1-19.87-22.05-10.9-14.63-21.9-32.55-16.46-50-5.77-.56-10.75 4.18-13.47 9.3s-4.12 10.93-7.5 15.62c-5.15 7.13-13.9 10.45-22.07 13.7a359.68 359.68 0 0 0-51.82 25.75c-6.65 4-13.27 8.3-18.35 14.15-5.44 6.25-8.85 14-13.47 20.85-9 13.47-22.68 23.58-37.86 29.3-5 1.9-10.36 3.38-14.83 6.4-9.58 6.47-13.57 19.37-11.3 30.7s10 21 19.3 27.86 19.87 10.9 30.6 14.9q13.48 4.95 27.13 9.44a155.77 155.77 0 0 0 20.49 5.56c12.8 2.35 25.94 1.77 38.87 3.2 11.82 1.3 23.43 4.3 35.3 5.12s24.44-.75 34.1-7.66c7.7-5.5 12.8-13.78 17.54-22A598.86 598.86 0 0 0 605 453.94c2.83-6.67 29.1-44.45 22.55-49.33-32.93-24.57-22 14.47-25.14 11.47-4.2-4.02-6.6-9.5-10.4-13.8z" class="C"/><path d="M551.2 379.7c-7.07-14.22-11.85-29.44-16.6-44.58-1.3-4.2-2.63-8.74-1.22-12.9 1.7-5 7.14-9.27 5.54-14.28-12.72 4-27.5 10.27-30 23.38-.55 2.86-.45 5.9-1.78 8.5-2.6 5.06-9.2 6.14-14.8 7-16.32 2.6-32.54 9.2-43.72 21.36-1.88 2-3.65 4.27-6 5.77a26.06 26.06 0 0 1-5.39 2.4c-10.94 3.93-22.2 8.83-29.23 18.08-3.63 4.76-5.95 10.47-10 14.9-5.48 6-13.55 9-19.48 14.6-4 3.72-6.85 8.44-9.5 13.2-10.16 18.36-17.6 39.9-12.22 60.18 2.8 10.6 9 20.06 12.33 30.52 4.6 14.25 4.14 30.5 12.75 42.75 5.43 7.7 13.83 12.8 22.43 16.63a120.63 120.63 0 0 0 61 9.82 227.23 227.23 0 0 0 23-3.88c18.13-3.74 36.45-7.8 52.92-16.27 28.1-14.43 48.3-40.22 67.6-65.22 3.67-4.76 7.37-9.56 10-15 2.57-5.2 4.12-10.8 5.85-16.33 5.85-18.6 14.08-37.14 13.3-56.62a16.64 16.64 0 0 0-1.35-6.79c-.78-1.6-2-3-2.7-4.6-1.22-2.88-.67-6.2-1.53-9.22-2.4-8.4-13.43-10-22.17-9.93l-2.8 49.3c-.43 7.4-1.22 15.6-6.73 20.57a14.63 14.63 0 0 1-17.24 1.35c-5.88-3.8-6.7-10.46-6.67-16.83.06-8-.6-15.33-3.14-23-5.28-15.9-15.06-29.87-22.48-44.82z" class="D"/><path d="M554.7 520.15c34.82 17.65 69.84 35.43 101 58.93 7.2 5.42 14.2 11.16 21.8 16 21.8 13.86 48.87 20.6 65.7 40.2 3.54 4.1 6.54 8.73 10.62 12.3a45.77 45.77 0 0 0 11.74 7 103.55 103.55 0 0 0 42.94 8.81c3.87-.05 7.85-.34 11.33-2 9.37-4.54 11.5-16.7 12.45-27.07.32-3.5.4-7.65-2.37-9.83-1.5-1.17-3.46-1.47-5.33-1.76-30.4-4.8-58.47-19.44-83.88-36.83s-48.7-37.7-73.76-55.58c-8.8-6.3-17.83-12.28-26.85-18.27l-29.2-19.38c-15.44-10.25-31.7-20.8-50.14-22.74a6.65 6.65 0 0 0-3.14.21c-1.62.63-2.52 2.3-3.3 3.85-5.4 10.54-12 20.1-18.63 29.87-3.55 5.22-3.95 6.57 2.17 9.36 5.5 2.52 11.35 4.15 16.84 6.93z" class="E"/><path d="M623.1 811.38a1.5 1.5 0 1 0 0-3 1.5 1.5 0 1 0 0 3z"/><circle cx="634.05" cy="317.55" r="95.65" class="E"/><use xlink:href="#D" class="D"/><use xlink:href="#D" fill="none" stroke="#000" stroke-miterlimit="10"/><path d="M449.1 446.65c3.86 10.6 13.56 17.8 22.76 24.37l24 17.12c6.38 4.55 12.93 9.27 17.08 15.9-6.07 2.3-8.84 10.1-6.85 16.28s7.7 10.6 13.92 12.6 12.82 1.93 19.3 1.56c7.45-.4 15.25-1.3 21.4-5.54l-13.5-8.32c-3.56-2.2-7.65-5.73-6.35-9.7l14.25-.14c1.5 0 3.13-.07 4.32-1s1.6-2.36 2.1-3.72A31.55 31.55 0 0 1 588.14 486c3.52-.26 7.57-.1 10-2.73 1.58-1.74 1.92-4.24 2.2-6.57.53-4.44 1.05-9 .17-13.35s-3.42-8.67-7.5-10.5c-3-1.36-6.47-1.23-9.75-1.67-15.1-2-25.55-15.68-33.65-28.57s-16.8-27.15-31.23-31.95a50.82 50.82 0 0 0-13.89-2.13c-10.4-.43-21.13.42-30.6 4.74-17.67 8.05-31.67 34.5-24.8 53.38z" class="C"/><path d="M739.13 327.18l-19-32.94a95.25 95.25 0 0 1-16.51 16 2.77 2.77 0 0 1-2.16.8c-.8-.2-1.26-1.06-1.58-1.84a70.77 70.77 0 0 1-4.28-14.54 23.91 23.91 0 0 1-16.83 12.8v-18c-13.14 6.9-17.78 22.95-24.82 36-1.07 2-2.34 4.05-4.4 5a11.08 11.08 0 0 1-5.32.48l-16-1.2a70.75 70.75 0 0 1-4.06 16.64 50.35 50.35 0 0 0-44.92-22.84c-8.73.58-18.6 4.92-20.3 13.5l-.85-.94c1.6 2.6-2 5.9-5 5.23s-4.9-3.52-6.4-6.2a116.16 116.16 0 0 1-13.73-40.77c-.9-6.48-1.28-13.14-3.64-19.24-1.42-3.67-3.53-7.06-4.65-10.83 0-.13-.07-.25-.1-.38l-.26 2.25c-.65 5.66-1.25 11.5.36 17 1.12 3.77 3.23 7.16 4.65 10.82 2.36 6.1 2.73 12.76 3.64 19.25a116 116 0 0 0 13.73 40.76c1.5 2.67 3.42 5.52 6.4 6.2s6.58-2.62 5-5.23l.85.93c1.7-8.58 11.56-12.93 20.3-13.5a50.32 50.32 0 0 1 44.92 22.83 70.55 70.55 0 0 0 4.06-16.63l16 1.18a11 11 0 0 0 5.32-.48c2.06-.92 3.33-3 4.4-5 7-13.08 11.68-29.1 24.82-36v18a23.91 23.91 0 0 0 16.83-12.8 71 71 0 0 0 4.28 14.54c.32.77.77 1.64 1.58 1.83a2.73 2.73 0 0 0 2.16-.79 95.25 95.25 0 0 0 16.51-16l19 32.94a124.8 124.8 0 0 0 8.25-55 123.7 123.7 0 0 1-8.25 36.14z" class="B"/><defs ><path id="B" d="M532.13 649.28c3.75-3.3 7.56-6.64 10.26-10.83 2.48-3.84 3.94-8.23 5.3-12.6q5.87-18.7 10.1-37.85c-15.4-2.35-26.88-15.94-41.93-19.93-.36-.1-11.87 69.06-12.7 75.38-.7 5.22-6.65 30.15.14 30.3 3.63.08 11.2-9 13.9-11.4z"/><path id="C" d="M530.13 345.7c-.9.46-1.9 1-2.16 1.94a3.52 3.52 0 0 0 .94 2.83l10.1 14.2c9.95 14 19.92 28.1 31.43 40.86a221.9 221.9 0 0 0 28.44 26.46c2.88 2.24 5.95 4.57 7.36 7.94a76.53 76.53 0 0 1 3.12-56.77c3.3-7 7.66-13.5 11.1-20.45a2.91 2.91 0 0 0-1.59-4.72c-8.74-4.5-18.3-7.22-27-11.8-6.83-3.6-13-8.28-19.13-12.9-5.47-4.1-12.75-11.37-19.5-13.1-7.3-1.88-7 4.77-9.35 10.32a30.62 30.62 0 0 1-13.74 15.18z"/><path id="D" d="M558.87 354.85c1.7-8.6 11.56-12.93 20.3-13.5a50.35 50.35 0 0 1 44.92 22.84 70.75 70.75 0 0 0 4.06-16.64l16 1.2a11.08 11.08 0 0 0 5.32-.48c2.06-.92 3.33-3 4.4-5 7-13.07 11.68-29.1 24.82-36v18a23.92 23.92 0 0 0 16.83-12.79 70.68 70.68 0 0 0 4.28 14.53c.32.78.77 1.64 1.58 1.84a2.8 2.8 0 0 0 2.16-.79 95.61 95.61 0 0 0 16.51-16l19 32.94c22.696-57.312-.253-122.59-53.82-153.1a97.21 97.21 0 0 0-13.71-6.53c-12.37-4.66-25.7-6.15-38.9-7.05-18.75-1.28-38.54-1.23-55 7.76-8.85 4.83-16.2 11.95-23.3 19.1-9.6 9.66-19.2 19.87-24.3 32.5-3.53 8.72-4.74 18.17-5.8 27.5-.65 5.65-1.25 11.5.36 16.94 1.12 3.77 3.23 7.16 4.65 10.83 2.36 6.1 2.73 12.76 3.64 19.24a116.1 116.1 0 0 0 13.79 40.74c1.5 2.67 3.42 5.5 6.4 6.2s6.58-2.62 5-5.22"/></defs></svg>