<svg xmlns="http://www.w3.org/2000/svg" xmlns:xlink="http://www.w3.org/1999/xlink" width="802.214" height="825.594" xmlns:v="https://vecta.io/nano"><defs><linearGradient id="A" x1="701.234" y1="266.944" x2="710.152" y2="249.041" gradientUnits="userSpaceOnUse"><stop offset="0" stop-color="#fff"/><stop offset="1"/></linearGradient><linearGradient id="B" x1="716.479" y1="825.225" x2="699.935" y2="637.954" gradientUnits="userSpaceOnUse"><stop offset="0" stop-color="gray" stop-opacity=".25"/><stop offset=".535" stop-color="gray" stop-opacity=".12"/><stop offset="1" stop-color="gray" stop-opacity=".1"/></linearGradient><linearGradient id="C" x1="707.599" y1="823.916" x2="676.087" y2="467.209" xlink:href="#B"/><path id="D" d="M463.12 284.847s-2.678 86.04-47.913 70.952 6.223-70.073 6.223-70.073 5.326-21.287-4.43-27.498"/><path id="E" d="M502.864 302.525s-71.584 47.81-34.842 78.204 56.16-42.366 56.16-42.366 15.243-15.786 25.676-10.795"/><path id="F" d="M399.243 344.367l6.804-13.66.73.364-6.804 13.66z"/><path id="G" d="M509.555 215.656l-.16-.474a5.42 5.42 0 0 0 3.865-7.714l.454-.2a5.91 5.91 0 0 1-4.16 8.398z"/></defs><path d="M593.6 383.92c14.355 1.44 28.754-1.835 42.606-5.87 27.464-8 55.962-20.707 70.198-45.518 5.2-9.062 8.15-19.207 11.057-29.242 5.866-20.258 11.77-40.75 12.715-61.82 1.012-23.18-4.012-46.225-14.58-66.88a14.41 14.41 0 0 0-7.401-6.903c-5.607-2.204-8.69.807-11.137 3.945-14.85 19.034-13.313 45.53-14.553 69.64-1.25 24.167-5.984 48.027-14.057 70.84-3.428 9.68-7.946 19.752-16.65 25.2-5.33 3.336-11.676 4.56-17.857 5.72-9.244 1.736-19.335 3.355-27.622-1.092-8.486-4.554-14.1-16.354-23.89-18.316-9.688-1.94-22.91 8.21-27.236 16.76-11.714 23.162 19.19 41.604 38.408 43.533z" fill="#ffd180"/><path d="M651.788 337.313c-5.33 3.336-11.676 4.56-17.857 5.72-6.35 1.192-13.087 2.28-19.377 1.434 7.898 3.293 17.147 1.85 25.7.247 6.18-1.16 12.525-2.384 17.857-5.72 8.704-5.447 13.223-15.52 16.65-25.2 8.073-22.813 12.808-46.673 14.057-70.84 1.24-24.1-.297-50.607 14.554-69.64 1.72-2.205 3.774-4.307 6.776-4.62-.62-.4-1.274-.726-1.953-1.005-5.608-2.204-8.7.807-11.138 3.945-14.85 19.034-13.313 45.53-14.554 69.64-1.25 24.167-5.983 48.027-14.057 70.84-3.427 9.68-7.946 19.752-16.65 25.2zm-90.292 4.753c3.997-7.904 15.6-17.153 24.975-16.98a15.47 15.47 0 0 0-4.053-1.463c-9.688-1.94-22.9 8.2-27.235 16.76-10.927 21.604 15.224 39.096 34.386 42.918-18.003-5.923-37.833-21.936-28.072-41.236z" opacity=".1"/><path opacity=".1" d="M472.65 172.265l166.686 83.027-24.034 48.25-166.686-83.027z"/><g fill="#31b533"><path d="M472.65 172.265l166.686 83.027-21.85 43.865L450.8 216.13z"/><circle cx="579.347" cy="199.863" r="29.403"/></g><path d="M557.01 46.543s50.908 13.8 69.444 34.6c0 0 30.03-25.49 43.92-18.57s-6.848 60.15-6.848 60.15L645.15 206s9.558 201.22-119.913 240.74-222.24-122.254-192.26-182.44 120.02-171.348 120.02-171.348S531.505 4.947 545.376.3s11.636 46.243 11.636 46.243z" fill="#ffd180"/><path d="M634.443 308.666A409.09 409.09 0 0 0 645.15 206.01l-2.902 13.154a408.92 408.92 0 0 1-7.805 89.502zm-286.96-52.694c29.978-60.185 102.6-149.855 102.6-149.855s78.5-88.015 92.38-92.663 11.635 46.243 11.635 46.243 50.908 13.8 69.445 34.6c0 0 30.03-25.5 43.92-18.57 5.4 2.685 5.557 12.353 3.752 23.172 4.018-15.138 6.698-32.566-.85-36.326-13.888-6.918-43.92 18.57-43.92 18.57-18.536-20.8-69.445-34.6-69.445-34.6S559.247-4.347 545.376.3s-92.38 92.663-92.38 92.663-72.632 89.67-102.6 149.855c-2.708 5.437-3.762 14.88-2.902 13.154z" opacity=".1" fill="#fff"/><g fill="#58555d"><circle cx="606.933" cy="172.529" r="10.344"/><circle cx="500.452" cy="119.491" r="10.344"/><ellipse cx="750.288" cy="193.625" rx="10.344" ry="15.516" transform="matrix(.445855 -.895105 .895105 .445855 43.56135 741.68056)"/></g><path d="M634.088 188.87l1.248-5.02 46.276 11.505-1.248 5.02zm-9.274 18.5l1.357-5 50.898 13.84-1.357 5zM431.35 58.86l3.857-3.44L472.28 97l-3.857 3.44zm-24.98 16.623l2.983-4.225 55.573 39.238-2.983 4.225z" fill="#ffd180"/><use xlink:href="#D" opacity=".1"/><use xlink:href="#E" opacity=".1"/><g fill="#ffd180"><use xlink:href="#D" x="-2.816" y="-3.841"/><use xlink:href="#E" x="4.39" y="-1.48"/></g><g fill="#58555d"><use xlink:href="#F" opacity=".5"/><use xlink:href="#F" x="11.697" y="5.826" opacity=".5"/><path opacity=".5" d="M404.043 348.133l9.523-19.12.73.364-9.523 19.12z"/><use xlink:href="#F" x="77.489" y="34.947" opacity=".5"/><use xlink:href="#F" x="89.187" y="40.773" opacity=".5"/><path opacity=".5" d="M481.53 383.08l9.523-19.12.73.364-9.523 19.12z"/></g><path d="M510.36 209.906a236.61 236.61 0 0 1-34.63-21.104c-34.404-25.292-52.924-54.9-53.586-55.984l5.335-6.677c.155.253 20.81 31.408 53.916 55.654 30.473 22.317 88.656 49.153 162.94 46.037l.377 8.992c-53.915 2.262-102.778-11.19-134.352-26.918z" opacity=".1"/><use xlink:href="#G" fill="#4d8af0"/><use xlink:href="#G" opacity=".1"/><path d="M645.226 226.04c-74.285 3.116-132.467-23.72-162.94-46.037-33.106-24.246-53.76-55.4-53.916-55.654l-7.683 4.688c.662 1.085 21.53 32.68 55.934 57.973a236.61 236.61 0 0 0 34.63 21.104c31.573 15.727 80.437 29.18 134.352 26.918zm-132.183-17.783a1 1 0 0 1 .892-1.79 1 1 0 0 1-.128 1.843 1 1 0 0 1-.764-.053z" fill="#f55f44"/><path d="M696.742,253.53387h0a10,10,0,0,0,4.4925,13.40959h0a10,10,0,0,0,13.40959-4.4925v0a10,10,0,0,0-4.4925-13.40959h0A10,10,0,0,0,696.742,253.53387Zm11.18033-.017a1.66667,1.66667,0,1,1,2.23493-.74875A1.66669,1.66669,0,0,1,707.92235,253.5169Z" transform="translate(-198.893 -37.203)" opacity=".1" fill="url(#A)"/><g fill="#4d8af0"><path d="M498.744 216.777h0a9 9 0 0 0 4.043 12.069h0a9 9 0 0 0 12.069-4.043h0a9 9 0 0 0-4.043-12.069h0a9 9 0 0 0-12.069 4.043zm10.062-.015a1.5 1.5 0 0 1 1.338-2.685 1.5 1.5 0 0 1-.192 2.765 1.5 1.5 0 0 1-1.145-.08z"/><path d="M509.238 215.498a5.91 5.91 0 0 1 4.197-8.38l.106.49a5.42 5.42 0 0 0-3.829 7.732z"/><path d="M513.488 207.363h0"/></g><path d="M632.023 222.836c-159.34 11.124-196.913-91.38-196.913-91.38z" fill="#ffd180"/><g fill="#3f3d56"><path d="M216.256 578.336h-20.88v176.522s134.764 43.656 265.732 0V578.336z"/><ellipse cx="326.345" cy="579.285" rx="130.968" ry="19.93"/></g><ellipse cx="326.345" cy="579.285" rx="130.968" ry="19.93" opacity=".1"/><path d="M478.586 367.432c-33.04 122.132-146.204 197.77-146.204 197.77s-59.6-122.375-26.56-244.507 146.204-197.77 146.204-197.77 59.6 122.375 26.56 244.507z" fill="#3f3d56"/><path d="M178.025 367.432c33.04 122.13 146.204 197.77 146.204 197.77s59.6-122.375 26.56-244.507-146.204-197.77-146.204-197.77-59.6 122.375-26.56 244.507z" fill="#31b533"/><g fill="#3f3d56"><path d="M226.573 341.185c90.66 88.253 101.732 223.918 101.732 223.918s-135.914-7.42-226.573-95.674S0 245.51 0 245.51s135.914 7.42 226.573 95.674z"/><path d="M430.038 341.185c-90.66 88.253-101.732 223.918-101.732 223.918s135.914-7.42 226.573-95.674S656.61 245.51 656.61 245.51s-135.914 7.42-226.573 95.674z"/></g><circle cx="328.243" cy="122.796" r="41.758" fill="#31b533"/><circle cx="708.209" cy="731.589" r="94" fill="url(#B)" opacity=".5"/><circle cx="708.209" cy="731.589" r="88" fill="#f55f44"/><path d="M651.774 828.847c-13.288 1.174-27.9-5.427-30.768-18.597-1.657-7.607.965-15.045 3.5-22.236 2.78-7.883 5.18-14.69 1.7-20.297-1.58-2.553-4.34-4.488-7.087-6.198-3.58-2.228-7.422-4.285-11.137-6.275-6.42-3.44-13.06-6.994-18.96-11.71-11.598-9.267-17.464-21.63-15.69-33.068 1.532-9.884 8.215-17.456 14.68-24.778 6.628-7.5 12.888-14.603 12.742-23.286-.198-11.81-12.27-20.288-22.918-27.77l-1.662-1.17c-12.995-9.165-25.477-25.073-17.888-39.737 2.65-5.12 7.07-8.405 11.345-11.582 2.88-1.947 5.51-4.244 7.824-6.84 7.813-9.677 3.826-24.01 1.75-29.724-1.58-4.343-3.643-8.677-5.64-12.867-2.95-6.2-5.998-12.59-7.77-19.496l-.29-1.133c-4.268-16.62-4.263-17.242.247-33.2l.562-2 6.737 1.9-.564 1.996c-4.083 14.434-4.083 14.434-.203 29.544l.29 1.134c1.602 6.247 4.374 12.065 7.308 18.224 2.067 4.34 4.205 8.828 5.9 13.487 5.248 14.436 4.198 27.745-2.882 36.512-2.676 3.063-5.733 5.77-9.095 8.06-3.804 2.827-7.397 5.498-9.303 9.18-5.902 11.404 7.096 24.726 15.706 30.8l1.65 1.162c11.42 8.023 25.635 18.008 25.893 33.378.192 11.397-7.274 19.856-14.493 28.036-6.063 6.87-11.8 13.36-13.01 21.22-1.63 10.512 5.72 20.595 13.143 26.526 5.4 4.315 11.47 7.565 17.896 11.006 3.814 2.042 7.758 4.155 11.532 6.504 3.47 2.16 7.003 4.68 9.34 8.458 5.232 8.455 2.033 17.53-1.06 26.307-2.313 6.56-4.497 12.754-3.263 18.418 2.23 10.236 15.656 14.894 26.31 12.674 8.718-1.817 16.39-6.606 24.514-11.674l8.08-4.908c14.933-8.577 28.464-10.672 39.13-6.063a51.7 51.7 0 0 1 9.483 5.787 52.21 52.21 0 0 0 7.274 4.637 25.16 25.16 0 0 0 32.248-11.2c.513-1.07.976-2.217 1.465-3.43 1.554-3.858 3.315-8.23 7.336-10.972 4.21-2.87 9.398-2.828 13.187-2.796l39.136.332-.06 7-39.135-.332c-3.713-.03-6.964.067-9.185 1.58-2.265 1.545-3.5 4.586-4.787 7.805-.51 1.265-1.036 2.573-1.648 3.846-7.867 15.073-26.114 21.41-41.63 14.46-2.9-1.51-5.668-3.26-8.274-5.234a45.74 45.74 0 0 0-8.188-5.054c-10.814-4.677-23.842.523-32.865 5.707-2.626 1.508-5.287 3.17-7.862 4.776-8.286 5.17-16.853 10.517-26.792 12.588a32.84 32.84 0 0 1-3.809.561z" transform="translate(-198.893 -37.203)" fill="url(#C)" opacity=".5"/><path d="M454.61 788.48c-13.288 1.174-27.9-5.427-30.768-18.597-1.657-7.607.965-15.045 3.5-22.236 2.78-7.883 5.18-14.69 1.7-20.297-1.58-2.553-4.34-4.488-7.087-6.198-3.58-2.228-7.422-4.285-11.137-6.275-6.42-3.44-13.06-6.994-18.96-11.71-11.598-9.267-17.464-21.63-15.69-33.068 1.532-9.884 8.215-17.456 14.68-24.778 6.628-7.5 12.888-14.603 12.742-23.286-.198-11.81-12.27-20.288-22.918-27.77l-1.662-1.17c-12.995-9.165-25.477-25.073-17.888-39.737 2.65-5.12 7.07-8.405 11.345-11.582 2.88-1.947 5.51-4.244 7.824-6.84 7.813-9.677 3.826-24.01 1.75-29.724-1.58-4.343-3.643-8.677-5.64-12.867-2.95-6.2-5.998-12.59-7.77-19.496l-.29-1.133c-4.268-16.62-4.263-17.242.247-33.2l.562-2 6.737 1.9-.564 1.996c-4.083 14.434-4.083 14.434-.203 29.544l.29 1.134c1.602 6.247 4.374 12.065 7.308 18.224 2.067 4.34 4.205 8.828 5.9 13.487 5.248 14.436 4.198 27.745-2.882 36.512-2.676 3.063-5.733 5.77-9.095 8.06-3.804 2.827-7.397 5.498-9.303 9.18-5.902 11.404 7.096 24.726 15.706 30.8l1.65 1.162c11.42 8.023 25.635 18.008 25.893 33.378.192 11.397-7.274 19.856-14.493 28.036-6.063 6.87-11.8 13.36-13.01 21.22-1.63 10.512 5.72 20.595 13.143 26.526 5.4 4.315 11.47 7.565 17.896 11.006 3.814 2.042 7.758 4.155 11.532 6.504 3.47 2.16 7.003 4.68 9.34 8.458 5.232 8.455 2.033 17.53-1.06 26.307-2.313 6.56-4.497 12.754-3.263 18.418 2.23 10.236 15.656 14.894 26.31 12.674 8.718-1.817 16.39-6.606 24.514-11.674l8.08-4.908c14.933-8.577 28.464-10.672 39.13-6.063a51.7 51.7 0 0 1 9.483 5.787c2.293 1.744 4.725 3.294 7.274 4.637a25.16 25.16 0 0 0 32.248-11.2c.513-1.07.976-2.217 1.465-3.43 1.554-3.858 3.315-8.23 7.336-10.972 4.21-2.87 9.398-2.828 13.187-2.796l39.136.332-.06 7-39.135-.332c-3.713-.03-6.964.067-9.185 1.58-2.265 1.545-3.5 4.586-4.787 7.805-.51 1.265-1.036 2.573-1.648 3.847-7.867 15.073-26.114 21.41-41.63 14.46-2.9-1.51-5.668-3.26-8.274-5.234a45.74 45.74 0 0 0-8.188-5.054c-10.814-4.677-23.842.523-32.865 5.707-2.626 1.508-5.287 3.17-7.862 4.776-8.286 5.17-16.853 10.517-26.792 12.588-1.258.26-2.53.45-3.81.56z" fill="#f55f44"/><path d="M717.782 669.505s49.06 4.2 56.392 75.832m-134.036 16.86s-23.2-58.183 52.58-98.007m-33.8 83.297s-10.697-30.176 12.7-49.3m31.885-2.826s20.334 14.266 13.893 55m23.692-95.454s33.46 15.114 46.27 69.197m-95.08-64.895s19.394-7.737 33.312 2.077m-47.362 111.6s18.782 19.423 85.666-7.568M655.86 667.446s-25.3 20.306-24.956 58.423m22.184 35.185s-4.92 12.48 8 22.383m110.57-9.77s-6.853 24.7-21.063 22.943m-20.87-88.507s10.02 11.16 5.276 25.635m-54.994-20.24s-7.557 16.73-1.432 29.24m12.4-30.208s8.645 18.3 2.552 28.887" opacity=".2" fill="none" stroke="#000" stroke-miterlimit="10"/></svg>