<svg xmlns="http://www.w3.org/2000/svg" xmlns:xlink="http://www.w3.org/1999/xlink" width="1004.918" height="901" xmlns:v="https://vecta.io/nano"><style><![CDATA[.B{opacity:.1}.C{fill:#f3ad55}.D{stroke-miterlimit:10}]]></style><defs><linearGradient id="A" x1="379.348" y1="694.574" x2="379.348" y2="531.921" gradientUnits="userSpaceOnUse"><stop offset="0" stop-color="gray" stop-opacity=".25"/><stop offset=".535" stop-color="gray" stop-opacity=".12"/><stop offset="1" stop-color="gray" stop-opacity=".1"/></linearGradient><linearGradient id="B" x1="462.968" x2="462.968" y2="680.032" xlink:href="#A"/><linearGradient id="C" x1="468.165" y1="587.898" x2="468.165" y2="555.873" xlink:href="#A"/><linearGradient id="D" x1="404.615" y1="618.353" x2="404.615" y2="603.083" xlink:href="#A"/><linearGradient id="E" x1="351.137" y1="587.835" x2="351.137" y2="539.549" xlink:href="#A"/><linearGradient id="F" x1="318.677" y1="645.691" x2="318.677" y2="613.248" xlink:href="#A"/><linearGradient id="G" x1="338.289" y1="612.918" x2="338.289" y2="593.159" xlink:href="#A"/><linearGradient id="H" x1="337.113" y1="611.647" x2="337.113" y2="591.888" xlink:href="#A"/><linearGradient id="I" x1="334.691" y1="608.621" x2="334.691" y2="594.429" xlink:href="#A"/><linearGradient id="J" x1="334.691" y1="607.35" x2="334.691" y2="593.159" xlink:href="#A"/><linearGradient id="K" x1="302.71" y1="595.33" x2="302.71" y2="577.669" xlink:href="#A"/><linearGradient id="L" x1="302.71" y1="594.06" x2="302.71" y2="576.398" xlink:href="#A"/><linearGradient id="M" x1="177.214" y1="578.169" x2="177.214" y2="569.274" xlink:href="#A"/><linearGradient id="N" x1="466.468" y1="664.711" x2="466.468" y2="624.049" xlink:href="#A"/><linearGradient id="O" x1="465.198" y1="664.711" x2="465.198" y2="624.049" xlink:href="#A"/><path id="P" d="M449.27 684.063a14 14 0 0 0 13.812 10.509 14.22 14.22 0 0 0 13.584-12.478c-8.463-2.287-20.19-3.863-27.396 1.97z"/><path id="Q" d="M320.58 681.32a13.36 13.36 0 0 0 13.179 10.027 13.57 13.57 0 0 0 12.961-11.906c-8.075-2.182-19.266-3.686-26.14 1.88z"/><path id="R" d="M258.333 602.562s71.22 40.228 124.29 19.45c20.53-8.038 35.314-26.144 40.193-47.645a106.81 106.81 0 0 1 14.196-33.824c19.23-29.983 53-47.326 88.625-46.824 36.912.52 106.19-4.494 126.506-47.358"/></defs><path d="M1.152 783.775c5.456 64.03 28.564 117.006 28.564 117.006l975 .22.202-901-319 .928S560.72-13.44 432.37 88.1q-6.016 4.754-11.792 9.767a350.13 350.13 0 0 0-48.972 51.989c-39.186 51.376-63.948 112.28-71.73 176.424-6.19 50.26-21.876 114.135-60.068 167.066q-1.966 2.715-4 5.4c-26.338 34.574-62.754 63.986-113.018 81.055-47.544 16.15-77.93 42.332-96.566 72.978-24.48 40.204-28.74 88.084-25.07 130.994z" fill="#38773d"/><path d="M833.817 171.887h171v481h-171zm-198 481h-198v-375h198z" class="B"/><path d="M239.817 493.407v159.48h198v-503h-66.28c-39.174 51.385-63.923 112.294-71.7 176.44-6.18 50.26-21.85 114.14-60.03 167.08zm594 159.48h-198v-583h198z" class="B"/><path d="M1.227 783.887h1003.6v-131H26.267c-24.47 40.2-28.72 88.1-25.04 131z" fill="#fff" class="B"/><g opacity=".5" fill="#f55f44" stroke="#535461" class="D"><path d="M532.947 376.843s-136.704 205.746-115.75 266.02M574.26 509.7s-38.287-27.807-105.42-25.483" opacity=".6"/><path d="M455.24 510.302s-1.6-50.453-46.443-85.135m112.376 169.636s-51.387-41.543-86.487-40.173m-9.15 23.843s-22.148-30.194-61.756-38.034" opacity=".6"/></g><g opacity=".5" fill="none" stroke="#535461" class="D"><path d="M822.04 377.28s43.774 243.112 100.622 272.104" opacity=".6"/><path d="M943.833 444.566s-46.88 6.437-93.717 54.586m8.234 28.232s-36.088-35.295-92.45-29.3m198.526 44.63s-65.842 5.592-90.224 30.88m9.9 23.54s-36.885-6.458-70.896 15.303" opacity=".6"/></g><g opacity=".5"><g transform="translate(-97.541 .5)"><path d="M274.758 576.196c.233 16.433 14.096 29.428 30.53 29.428h2.287a7.72 7.72 0 0 1 5.413 2.186 7.54 7.54 0 0 1 2.198 3.837c.153.593.23 1.204.23 1.817v29c-.008 5.577 1.588 11.04 4.6 15.734a41.57 41.57 0 0 1 6.837 22.386h0a13.99 13.99 0 0 0 14.244 13.977c7.688-.14 13.71-6.747 13.71-14.435v-7.256l3.812.445v7.268a13.99 13.99 0 0 0 14.244 13.977c7.688-.14 13.71-6.747 13.71-14.435v-3.672c3.812 1.588 25.414 1.588 31.41.05l1.627-.127v4.206a13.99 13.99 0 0 0 14.244 13.977c7.688-.14 13.71-6.747 13.71-14.435V674.1l1.27-.114v6.608c0 1.17.145 2.335.432 3.47a14 14 0 0 0 13.812 10.509 14.22 14.22 0 0 0 13.584-12.478c.08-.65.123-1.303.127-1.957V649.78c.012-10.425-3.478-20.552-9.91-28.755a8.62 8.62 0 0 1-.241-10.178c7.116-10.42 17.637-28.006 17.294-40.47a13.67 13.67 0 0 0-3.329-9.225l-.42-.445c-10.242-10.725-28.273-2.287-26.7 12.453.528 4.938.162 9.93-1.08 14.74-.705 2.718-1.662 5.364-2.86 7.904a13.4 13.4 0 0 1-13.711 7.624c-1.902-.23-3.815-.345-5.73-.343h-58.77c-7.07-.002-13.353-4.503-15.63-11.195a16.03 16.03 0 0 1-.889-5.324V540.82c.001-2.408-.975-4.714-2.704-6.4s-4.064-2.58-6.47-2.505c-2.35.08-4.565 1.112-6.137 2.86-1.59 1.755-2.474 4.038-2.478 6.407a4.71 4.71 0 0 1-4.714 4.711h-27.688a29.85 29.85 0 0 0-29.858 30.294z" fill="url(#A)"/><use xlink:href="#P" fill="url(#B)"/><use xlink:href="#P" x="-29.226" fill="url(#B)"/><use xlink:href="#P" x="-90.218" fill="url(#B)"/><use xlink:href="#P" x="-121.985" fill="url(#B)"/><path d="M452.396 587.898c9.873-3.965 21.92-11.22 31.538-17.523a13.67 13.67 0 0 0-3.329-9.225l-.42-.445c-10.242-10.725-28.273-2.287-26.7 12.453.528 4.938.162 9.93-1.08 14.74z" fill="url(#C)"/><path d="M440.445 603.168s-27.186 34.223-71.66-.085" fill="url(#D)"/><path d="M354.807 539.55s-16.52 21.602 0 48.286" fill="url(#E)"/><path d="M315.416 613.248s14.548 18.077.182 32.443" fill="url(#F)"/><path d="M314.146 609.436c1.08 1.017.712 1.995 1.042 3.482l47.244-12.376c-2.54-1.957-5.693-4.282-6.735-7.383-5.667 4.397-16.862 11.766-41.55 16.277z" fill="url(#G)" class="B"/><path d="M313 607.8a7.54 7.54 0 0 1 2.198 3.837l46.05-12.008c-2.573-1.98-4.5-4.676-5.54-7.75C350.03 596.285 337.68 603.3 313 607.8z" fill="url(#H)"/><path d="M353.965 594.43s-14.406 10.835-38.55 14.192" fill="url(#I)" class="B"/><path d="M353.965 593.16s-14.406 10.835-38.55 14.192" fill="url(#J)"/><path d="M317.958 594.188s-24.143 7.624-30.496-16.52z" fill="url(#K)" class="B"/><path d="M317.958 592.917s-24.143 7.624-30.496-16.52z" fill="url(#L)"/></g><ellipse cx="177.214" cy="573.722" rx="2.541" ry="4.447" fill="url(#M)"/><g transform="translate(-97.541 .5)"><path d="M467.262 664.71l-5.083-40.662s15.248 24.143 5.083 40.662" fill="url(#N)" class="B"/><path d="M460.91 624.05s15.248 24.143 5.083 40.662z" fill="url(#O)"/></g></g><path d="M181.95 578.393c.222 15.68 13.45 28.08 29.132 28.08h2.183a7.37 7.37 0 0 1 5.165 2.085c1.05.983 1.78 2.26 2.098 3.662.146.566.22 1.15.218 1.734v27.68c-.008 5.322 1.515 10.534 4.388 15.013 4.176 6.348 6.44 13.762 6.524 21.36h0a13.35 13.35 0 0 0 13.592 13.337c7.335-.133 13.082-6.438 13.082-13.774v-6.923l3.637.424v6.935a13.35 13.35 0 0 0 13.592 13.337c7.335-.133 13.082-6.438 13.082-13.774v-3.504c3.637 1.516 24.25 1.516 29.972.048l1.552-.12v4.013a13.35 13.35 0 0 0 13.592 13.337c7.335-.133 13.082-6.438 13.082-13.774v-5.76l1.212-.11v6.305c0 1.116.14 2.228.412 3.3a13.36 13.36 0 0 0 13.179 10.027 13.57 13.57 0 0 0 12.961-11.906 15.75 15.75 0 0 0 .121-1.867v-28.966c.012-9.947-3.32-19.6-9.457-27.438-2.185-2.84-2.278-6.77-.23-9.712 6.8-9.942 16.83-26.723 16.502-38.617.066-3.226-1.065-6.362-3.177-8.803l-.4-.424c-9.772-10.233-26.977-2.182-25.486 11.882a39.46 39.46 0 0 1-1.031 14.065 43.04 43.04 0 0 1-2.728 7.542c-2.337 4.99-7.6 7.923-13.082 7.275-1.814-.22-3.64-.33-5.468-.327h-56.077a15.76 15.76 0 0 1-14.913-10.682 15.3 15.3 0 0 1-.849-5.08v-43.65a8.49 8.49 0 0 0-8.754-8.487 8.26 8.26 0 0 0-5.856 2.728c-1.518 1.675-2.36 3.853-2.364 6.114 0 1.193-.474 2.337-1.318 3.18s-1.988 1.316-3.18 1.316h-26.42a28.48 28.48 0 0 0-28.49 28.906z" class="C"/><g fill="#f38143"><path d="M348.467 681.32a13.36 13.36 0 0 0 13.18 10.027 13.57 13.57 0 0 0 12.961-11.906c-8.075-2.182-19.266-3.686-26.14 1.88z"/><use xlink:href="#Q"/><use xlink:href="#Q" x="-58.198"/><use xlink:href="#Q" x="-88.51"/></g><path d="M351.45 589.56c9.42-3.783 20.915-10.706 30.093-16.72.066-3.226-1.065-6.362-3.177-8.803l-.4-.424c-9.772-10.233-26.977-2.182-25.486 11.882a39.46 39.46 0 0 1-1.031 14.065zm-11.403 14.57s-25.94 32.655-68.377-.08m-13.337-60.625s-15.762 20.612 0 46.074m-37.587 24.25s13.882 17.25.174 30.956" fill="#f8dea5"/><path d="M219.534 610.11c1.03.97.68 1.904.994 3.322l45.08-11.81c-2.425-1.867-5.432-4.086-6.426-7.044-5.408 4.195-16.09 11.227-39.648 15.532z" class="B"/><path d="M218.43 608.56c1.05.983 1.78 2.26 2.098 3.662l43.94-11.458c-2.455-1.888-4.295-4.462-5.286-7.396-5.408 4.195-17.193 10.888-40.75 15.192z" fill="#383f4d"/><path d="M257.53 595.79s-13.746 10.34-36.783 13.54" class="B"/><path d="M257.53 594.58s-13.746 10.34-36.783 13.54" class="C"/><path d="M216.17 599.56s-23.037 7.275-29.1-15.762z" class="B"/><path d="M216.17 598.35s-23.037 7.275-29.1-15.762z" class="C"/><ellipse cx="181.947" cy="575.555" rx="2.425" ry="4.244" fill="#383f4d"/><path d="M365.636 662.853l-4.85-38.8s14.55 23.037 4.85 38.8" class="B"/><path d="M359.574 624.054s14.55 23.037 4.85 38.8z" class="C"/><g fill="none" stroke="#383f4d" stroke-width="2" class="D"><use xlink:href="#R" class="B"/><use xlink:href="#R" y="-1.212"/></g><path d="M665.195 418.028s-31.313 36.517-24.732 38.902 37.308-23.7 35.333-32.933zm184.302 33.842s17 45 10 45-27-35-22-43z" fill="#a0616a"/><g fill="#2f2e41"><ellipse cx="969.538" cy="718.87" rx="37" ry="12" transform="matrix(.578646 -.815579 .815579 .578646 -275.3173 1094.1326)"/><ellipse cx="845.538" cy="736.87" rx="37" ry="12" transform="matrix(.76014 -.64976 .64976 .76014 -373.51814 726.64464)"/><path d="M860.074 179.49c-2.807-3.97-6.26-7.438-9.222-11.293-6.83-8.888-9.192-20.73-18.356-27.546-9.068-6.744-23.46-13.382-34.806-12.85-14.955.7-26.82 12.303-37.13 23.16q-11.818 12.445-23.636 24.89c-5.7 6.002-11.6 12.374-13.664 20.392-1.974 7.706-.048 15.985 3.567 23.07a56.15 56.15 0 0 0 15.443 18.435l18.996-25.937 2.58 37.417c13.404 4.442 27.803 5.316 41.928 4.334l4.184-15.34 4.39 14.492c16.88-2.238 33.84-8.066 44.288-21.24 11.553-14.563 12.166-36.805 1.434-51.983z"/></g><g fill="#a0616a"><circle cx="795.497" cy="181.87" r="31"/><path d="M775.497 196.87s2 24-11 26-27 0-27 8 10 81 10 81l25-2 35-34 19-37s-23-10-13-40z"/></g><g fill="#d0cde1"><path d="M760.497 297.87l-10-27 2-37s21.957-3 21.478-21l-16.478 7-38 6v35s-13 21 2 42l7 44 72-5 23-30 29-57-30-22 4-6-15.302-9.98 2.302 18.98-7 12s-32 6-46 50z"/><path d="M725.497 227.87l-6-2s-12 5-12 21-48 174-48 174l22 6 30-73 18-61zm119 27h8s5-4 4 25 3 182 3 182l-29-2-7-165z"/></g><g fill="#2f2e41"><path d="M806.277 334.33s-67.78-12.46-82.78-.46a8.76 8.76 0 0 1 2 6c0 4 2-1 0 4s-6 1-2 5 5 3 3 6 0 8 0 8-11 52-1 89 93 298 115 291 77-39 74-50-104-163-104-163 42-131-8-173c0 0 3-4 2-7s-2 0-1-3 6-3 3-6-.22-6.54-.22-6.54z"/><path d="M760.497 441.87s-68 304-54 309 68 6 72 0 32-221 32-221zm1.5-282.5s25 30 75 13l-14-25-33-10z"/></g></svg>